<svg width="39" height="39" viewBox="0 0 39 39" fill="none" xmlns="http://www.w3.org/2000/svg">
<path fill-rule="evenodd" clip-rule="evenodd" d="M21.9275 2.5C21.9275 1.11929 20.8082 0 19.4275 0C18.0468 0 16.9275 1.11929 16.9275 2.5V16.9276H2.5C1.11929 16.9276 0 18.0468 0 19.4276C0 20.8083 1.11929 21.9276 2.5 21.9276H16.9275V36.355C16.9275 37.7357 18.0468 38.855 19.4275 38.855C20.8082 38.855 21.9275 37.7357 21.9275 36.355V21.9276H36.355C37.7357 21.9276 38.855 20.8083 38.855 19.4276C38.855 18.0468 37.7357 16.9276 36.355 16.9276H21.9275V2.5Z" fill="white"/>
</svg>
