<svg width="44" height="36" viewBox="0 0 44 36" fill="none" xmlns="http://www.w3.org/2000/svg">
<path fill-rule="evenodd" clip-rule="evenodd" d="M0 2.5C0 1.11929 1.11929 0 2.5 0H40.8145C42.1952 0 43.3145 1.11929 43.3145 2.5C43.3145 3.88071 42.1952 5 40.8145 5H2.5C1.11929 5 0 3.88071 0 2.5ZM1.28746e-05 17.8993C1.28746e-05 16.5186 1.1193 15.3993 2.50001 15.3993H40.8145C42.1952 15.3993 43.3145 16.5186 43.3145 17.8993C43.3145 19.28 42.1952 20.3993 40.8145 20.3993H2.50001C1.1193 20.3993 1.28746e-05 19.28 1.28746e-05 17.8993ZM2.5 30.7986C1.11929 30.7986 0 31.9179 0 33.2986C0 34.6793 1.11929 35.7986 2.5 35.7986H40.8145C42.1952 35.7986 43.3145 34.6793 43.3145 33.2986C43.3145 31.9179 42.1952 30.7986 40.8145 30.7986H2.5Z" fill="white"/>
</svg>
