<svg width="37" height="39" viewBox="0 0 37 39" fill="none" xmlns="http://www.w3.org/2000/svg">
<path fill-rule="evenodd" clip-rule="evenodd" d="M18.559 0.599976C15.9296 0.599976 13.4079 1.64451 11.5486 3.5038C9.68929 5.36309 8.64476 7.88483 8.64476 10.5143C8.64476 13.1437 9.68929 15.6654 11.5486 17.5247C13.4079 19.384 15.9296 20.4285 18.559 20.4285C21.1885 20.4285 23.7102 19.384 25.5695 17.5247C27.4288 15.6654 28.4733 13.1437 28.4733 10.5143C28.4733 7.88483 27.4288 5.36309 25.5695 3.5038C23.7102 1.64451 21.1885 0.599976 18.559 0.599976ZM12.9628 4.91802C14.447 3.4338 16.46 2.59998 18.559 2.59998C20.658 2.59998 22.6711 3.4338 24.1553 4.91802C25.6395 6.40223 26.4733 8.41526 26.4733 10.5143C26.4733 12.6133 25.6395 14.6263 24.1553 16.1105C22.6711 17.5947 20.658 18.4285 18.559 18.4285C16.46 18.4285 14.447 17.5947 12.9628 16.1105C11.4786 14.6263 10.6448 12.6133 10.6448 10.5143C10.6448 8.41526 11.4786 6.40223 12.9628 4.91802ZM18.5591 23.9283C14.581 23.9283 10.7052 25.1883 7.48761 27.5274C4.26999 29.8665 1.87589 33.1647 0.648751 36.9487C0.550035 37.2531 0.602963 37.5863 0.79113 37.8452C0.979298 38.104 1.27998 38.2572 1.59998 38.2572H35.5182C35.8382 38.2572 36.1388 38.104 36.327 37.8452C36.5152 37.5863 36.5681 37.2531 36.4694 36.9487C35.2422 33.1647 32.8481 29.8665 29.6305 27.5274C26.4129 25.1883 22.5371 23.9283 18.5591 23.9283ZM8.66364 29.1451C11.5395 27.0544 15.0036 25.9283 18.5591 25.9283C22.1145 25.9283 25.5786 27.0544 28.4545 29.1451C30.9528 30.9613 32.8957 33.4244 34.0818 36.2572H3.03636C4.22246 33.4244 6.16531 30.9613 8.66364 29.1451Z" fill="black"/>
</svg>
