<svg width="38" height="38" viewBox="0 0 38 38" fill="none" xmlns="http://www.w3.org/2000/svg">
<path fill-rule="evenodd" clip-rule="evenodd" d="M11.9345 17.5875C10.0621 15.7151 9.01019 13.1756 9.01019 10.5277C9.01019 7.87976 10.0621 5.34028 11.9345 3.46791C13.8068 1.59553 16.3463 0.543646 18.9942 0.543646C21.6422 0.543646 24.1817 1.59553 26.054 3.46791C27.9264 5.34028 28.9783 7.87976 28.9783 10.5277C28.9783 13.1756 27.9264 15.7151 26.054 17.5875C24.1817 19.4599 21.6422 20.5118 18.9942 20.5118C16.3463 20.5118 13.8068 19.4599 11.9345 17.5875ZM30.7358 27.5641C34.1482 30.0448 36.6871 33.5426 37.9886 37.5556H0C1.30141 33.5426 3.8404 30.0448 7.25276 27.5641C10.6651 25.0835 14.7755 23.7473 18.9943 23.7473C23.2131 23.7473 27.3234 25.0835 30.7358 27.5641Z" fill="white"/>
</svg>
