<svg width="70" height="70" viewBox="0 0 70 70" fill="none" xmlns="http://www.w3.org/2000/svg">
<path d="M70 35C70 54.33 54.33 70 35 70C15.67 70 0 54.33 0 35C0 15.67 15.67 0 35 0C54.33 0 70 15.67 70 35Z" fill="white"/>
<path d="M25.0101 24.9841C25.0101 27.632 26.062 30.1715 27.9344 32.0438C29.8068 33.9162 32.3462 34.9681 34.9942 34.9681C37.6421 34.9681 40.1816 33.9162 42.054 32.0438C43.9263 30.1715 44.9782 27.632 44.9782 24.9841C44.9782 22.3361 43.9263 19.7966 42.054 17.9243C40.1816 16.0519 37.6421 15 34.9942 15C32.3462 15 29.8068 16.0519 27.9344 17.9243C26.062 19.7966 25.0101 22.3361 25.0101 24.9841V24.9841Z" stroke="black" stroke-width="2" stroke-linecap="round" stroke-linejoin="round"/>
<path d="M53.9886 54.9362C52.6871 50.9232 50.1482 47.4254 46.7358 44.9448C43.3234 42.4641 39.2131 41.1279 34.9943 41.1279C30.7755 41.1279 26.6651 42.4641 23.2528 44.9448C19.8404 47.4254 17.3014 50.9232 16 54.9362H53.9886Z" stroke="black" stroke-width="2" stroke-linecap="round" stroke-linejoin="round"/>
</svg>
