<svg width="38" height="38" viewBox="0 0 38 38" fill="none" xmlns="http://www.w3.org/2000/svg">
<path fill-rule="evenodd" clip-rule="evenodd" d="M11.9345 17.0438C10.0621 15.1715 9.01019 12.632 9.01019 9.98405C9.01019 7.33612 10.0621 4.79663 11.9345 2.92426C13.8068 1.05189 16.3463 0 18.9942 0C21.6422 0 24.1817 1.05189 26.054 2.92426C27.9264 4.79663 28.9783 7.33612 28.9783 9.98405C28.9783 12.632 27.9264 15.1715 26.054 17.0438C24.1817 18.9162 21.6422 19.9681 18.9942 19.9681C16.3463 19.9681 13.8068 18.9162 11.9345 17.0438ZM30.7358 27.0205C34.1482 29.5012 36.6871 32.9989 37.9886 37.012H0C1.30141 32.9989 3.8404 29.5012 7.25276 27.0205C10.6651 24.5398 14.7755 23.2036 18.9943 23.2036C23.2131 23.2036 27.3234 24.5398 30.7358 27.0205Z" fill="black"/>
</svg>
